HIERARCHY
ROOT hips
{
  OFFSET -0.00735851563513279 12.18665635585785 0.12248523347079754
  CHANNELS 6 Xposition Yposition Zposition Yrotation Xrotation Zrotation
  JOINT spine
  {
    OFFSET 1.0244548320770264e-7 0.5955291986465454 0
    CHANNELS 3 Yrotation Xrotation Zrotation
    JOINT chest
    {
      OFFSET 0 1.2719063864449713 0
      CHANNELS 3 Yrotation Xrotation Zrotation
      JOINT upperChest
      {
        OFFSET 0 1.490802666915459 0
        CHANNELS 3 Yrotation Xrotation Zrotation
        JOINT neck
        {
          OFFSET 0 1.3131953345263365 0
          CHANNELS 3 Yrotation Xrotation Zrotation
          JOINT head
          {
            OFFSET 0 0.8653679716847534 0
            CHANNELS 3 Yrotation Xrotation Zrotation
            JOINT leftEye
            {
              OFFSET 0.20629723300226033 0.6721053123474121 0.3036841657012701
              CHANNELS 3 Yrotation Xrotation Zrotation
              End Site
              {
                OFFSET 0.20629723300226033 0.6721053123474121 0.3036841657012701
              }
            }
            JOINT rightEye
            {
              OFFSET -0.20629652100615203 0.6721066236495972 0.30368443205952644
              CHANNELS 3 Yrotation Xrotation Zrotation
              End Site
              {
                OFFSET -0.20629652100615203 0.6721066236495972 0.30368443205952644
              }
            }
          }
        }
        JOINT leftShoulder
        {
          OFFSET 0.24624172446783632 0.959903359413147 0
          CHANNELS 3 Yrotation Xrotation Zrotation
          JOINT leftUpperArm
          {
            OFFSET 0.9650355761446514 0 0
            CHANNELS 3 Yrotation Xrotation Zrotation
            JOINT leftLowerArm
            {
              OFFSET 2.4419134471639827 0 0
              CHANNELS 3 Yrotation Xrotation Zrotation
              JOINT leftHand
              {
                OFFSET 2.3874557408809456 0 0
                CHANNELS 3 Yrotation Xrotation Zrotation
                JOINT leftIndexProximal
                {
                  OFFSET 0.7029628753662109 0.06118142604827881 0.23586585000157356
                  CHANNELS 3 Yrotation Xrotation Zrotation
                  JOINT leftIndexIntermediate
                  {
                    OFFSET 0.36102771759033203 -0.001475214958190918 0.056637559086084366
                    CHANNELS 3 Yrotation Xrotation Zrotation
                    JOINT leftIndexDistal
                    {
                      OFFSET 0.22344785928726196 -0.007408857345581055 0.02531452476978302
                      CHANNELS 3 Yrotation Xrotation Zrotation
                      End Site
                      {
                        OFFSET 0.22344785928726196 -0.007408857345581055 0.02531452476978302
                      }
                    }
                  }
                }
                JOINT leftLittleProximal
                {
                  OFFSET 0.6958752870559692 0.034375786781311035 -0.29472956992685795
                  CHANNELS 3 Yrotation Xrotation Zrotation
                  JOINT leftLittleIntermediate
                  {
                    OFFSET 0.34538060426712036 -0.0030041933059692383 0.00024324655532836914
                    CHANNELS 3 Yrotation Xrotation Zrotation
                    JOINT leftLittleDistal
                    {
                      OFFSET 0.19865047931671143 0.00746917724609375 -0.010377676226198673
                      CHANNELS 3 Yrotation Xrotation Zrotation
                      End Site
                      {
                        OFFSET 0.19865047931671143 0.00746917724609375 -0.010377676226198673
                      }
                    }
                  }
                }
                JOINT leftMiddleProximal
                {
                  OFFSET 0.7272291779518127 0.09209799766540527 0.05257739871740341
                  CHANNELS 3 Yrotation Xrotation Zrotation
                  JOINT leftMiddleIntermediate
                  {
                    OFFSET 0.40590834617614746 -0.014838695526123047 0.026817932724952698
                    CHANNELS 3 Yrotation Xrotation Zrotation
                    JOINT leftMiddleDistal
                    {
                      OFFSET 0.2495119571685791 -0.026458144187927246 0.010310646146535873
                      CHANNELS 3 Yrotation Xrotation Zrotation
                      End Site
                      {
                        OFFSET 0.2495119571685791 -0.026458144187927246 0.010310646146535873
                      }
                    }
                  }
                }
                JOINT leftRingProximal
                {
                  OFFSET 0.7334893345832825 0.09136629104614258 -0.1205735495314002
                  CHANNELS 3 Yrotation Xrotation Zrotation
                  JOINT leftRingIntermediate
                  {
                    OFFSET 0.3775520920753479 -0.005917906761169434 0.001896639820188284
                    CHANNELS 3 Yrotation Xrotation Zrotation
                    JOINT leftRingDistal
                    {
                      OFFSET 0.2177620530128479 0.007703900337219238 0.0027355607599020004
                      CHANNELS 3 Yrotation Xrotation Zrotation
                      End Site
                      {
                        OFFSET 0.2177620530128479 0.007703900337219238 0.0027355607599020004
                      }
                    }
                  }
                }
                JOINT leftThumbProximal
                {
                  OFFSET 0.02235114574432373 -0.07603192329406738 0.1950724683701992
                  CHANNELS 3 Yrotation Xrotation Zrotation
                  JOINT leftThumbIntermediate
                  {
                    OFFSET 0.3551589846611023 -0.02970755100250244 0.36741212010383606
                    CHANNELS 3 Yrotation Xrotation Zrotation
                    JOINT leftThumbDistal
                    {
                      OFFSET 0.23456048965454102 -0.016631245613098145 0.2093813568353653
                      CHANNELS 3 Yrotation Xrotation Zrotation
                      End Site
                      {
                        OFFSET 0.23456048965454102 -0.016631245613098145 0.2093813568353653
                      }
                    }
                  }
                }
              }
            }
          }
        }
        JOINT rightShoulder
        {
          OFFSET -0.24624088185373694 0.9600239992141724 0
          CHANNELS 3 Yrotation Xrotation Zrotation
          JOINT rightUpperArm
          {
            OFFSET -0.9650300767908009 0 0
            CHANNELS 3 Yrotation Xrotation Zrotation
            JOINT rightLowerArm
            {
              OFFSET -2.4420125187833426 0 0
              CHANNELS 3 Yrotation Xrotation Zrotation
              JOINT rightHand
              {
                OFFSET -2.3874255620910265 0 0
                CHANNELS 3 Yrotation Xrotation Zrotation
                JOINT rightIndexProximal
                {
                  OFFSET -0.7029609084129333 0.06117355823516846 0.23587234504520893
                  CHANNELS 3 Yrotation Xrotation Zrotation
                  JOINT rightIndexIntermediate
                  {
                    OFFSET -0.3610270619392395 -0.0014804601669311523 0.05664427950978279
                    CHANNELS 3 Yrotation Xrotation Zrotation
                    JOINT rightIndexDistal
                    {
                      OFFSET -0.2234485149383545 -0.0074127912521362305 0.025317884981632233
                      CHANNELS 3 Yrotation Xrotation Zrotation
                      End Site
                      {
                        OFFSET -0.2234485149383545 -0.0074127912521362305 0.025317884981632233
                      }
                    }
                  }
                }
                JOINT rightLittleProximal
                {
                  OFFSET -0.6958779096603394 0.034366607666015625 -0.29472311586141586
                  CHANNELS 3 Yrotation Xrotation Zrotation
                  JOINT rightLittleIntermediate
                  {
                    OFFSET -0.3453786373138428 -0.003008127212524414 0.00025422871112823486
                    CHANNELS 3 Yrotation Xrotation Zrotation
                    JOINT rightLittleDistal
                    {
                      OFFSET -0.19865179061889648 0.00746917724609375 -0.010371447540819645
                      CHANNELS 3 Yrotation Xrotation Zrotation
                      End Site
                      {
                        OFFSET -0.19865179061889648 0.00746917724609375 -0.010371447540819645
                      }
                    }
                  }
                }
                JOINT rightMiddleProximal
                {
                  OFFSET -0.7272304892539978 0.09209012985229492 0.05258418060839176
                  CHANNELS 3 Yrotation Xrotation Zrotation
                  JOINT rightMiddleIntermediate
                  {
                    OFFSET -0.4059063792228699 -0.014843940734863281 0.026821313425898552
                    CHANNELS 3 Yrotation Xrotation Zrotation
                    JOINT rightMiddleDistal
                    {
                      OFFSET -0.24951326847076416 -0.026460766792297363 0.010313207283616066
                      CHANNELS 3 Yrotation Xrotation Zrotation
                      End Site
                      {
                        OFFSET -0.24951326847076416 -0.026460766792297363 0.010313207283616066
                      }
                    }
                  }
                }
                JOINT rightRingProximal
                {
                  OFFSET -0.7334906458854675 0.09135580062866211 -0.12056719791144133
                  CHANNELS 3 Yrotation Xrotation Zrotation
                  JOINT rightRingIntermediate
                  {
                    OFFSET -0.37755340337753296 -0.005923151969909668 0.0019026175141334534
                    CHANNELS 3 Yrotation Xrotation Zrotation
                    JOINT rightRingDistal
                    {
                      OFFSET -0.21775943040847778 0.007701277732849121 0.0027383523993194103
                      CHANNELS 3 Yrotation Xrotation Zrotation
                      End Site
                      {
                        OFFSET -0.21775943040847778 0.007701277732849121 0.0027383523993194103
                      }
                    }
                  }
                }
                JOINT rightThumbProximal
                {
                  OFFSET -0.022347867488861084 -0.07603061199188232 0.19507363624870777
                  CHANNELS 3 Yrotation Xrotation Zrotation
                  JOINT rightThumbIntermediate
                  {
                    OFFSET -0.3550455570220947 -0.029461026191711426 0.36754218488931656
                    CHANNELS 3 Yrotation Xrotation Zrotation
                    JOINT rightThumbDistal
                    {
                      OFFSET -0.23451131582260132 -0.016489624977111816 0.20944765955209732
                      CHANNELS 3 Yrotation Xrotation Zrotation
                      End Site
                      {
                        OFFSET -0.23451131582260132 -0.016489624977111816 0.20944765955209732
                      }
                    }
                  }
                }
              }
            }
          }
        }
      }
    }
  }
  JOINT leftUpperLeg
  {
    OFFSET 0.8483456987887621 -0.42556869983673096 0
    CHANNELS 3 Yrotation Xrotation Zrotation
    JOINT leftLowerLeg
    {
      OFFSET 0 -4.6702112872869534 0
      CHANNELS 3 Yrotation Xrotation Zrotation
      JOINT leftFoot
      {
        OFFSET -0.13096565008163452 -5.202569782733917 -0.2985280640423298
        CHANNELS 3 Yrotation Xrotation Zrotation
        JOINT leftToes
        {
          OFFSET 0.01423943042755127 -0.7568342834711075 1.213271364569664
          CHANNELS 3 Yrotation Xrotation Zrotation
          End Site
          {
            OFFSET 0.01423943042755127 -0.7568342834711075 1.213271364569664
          }
        }
      }
    }
  }
  JOINT rightUpperLeg
  {
    OFFSET -0.8483468051999807 -0.42556607723236084 0
    CHANNELS 3 Yrotation Xrotation Zrotation
    JOINT rightLowerLeg
    {
      OFFSET 0 -4.670219469177788 0
      CHANNELS 3 Yrotation Xrotation Zrotation
      JOINT rightFoot
      {
        OFFSET 0.13097601756453514 -5.202573716640472 -0.29853164963424206
        CHANNELS 3 Yrotation Xrotation Zrotation
        JOINT rightToes
        {
          OFFSET -0.014232628047466278 -0.7568355947732925 1.213272675871849
          CHANNELS 3 Yrotation Xrotation Zrotation
          End Site
          {
            OFFSET -0.014232628047466278 -0.7568355947732925 1.213272675871849
          }
        }
      }
    }
  }
}
MOTION
Frames: 5
Frame Time: 0.03333333333333333
0.561904180460503 -0.5441736502334805 1.048844789191591 7.500810044921256 -20.18921656699851 11.767064433274342 1.897599739799052 -4.2337597769199675 17.876613157453882 6.22566435241878 13.320975028685181 -30.303591359818657 0 0 0 10.49142789805311 23.188770185361058 -4.111781699375923 12.82311917277091 -14.081616925300601 -5.482256201192945 0 0 0 0 0 0 -4.777665680731267 2.5370344516732186 27.10777909294829 -38.25330508034495 22.390412998292966 10.533804106446375 -14.574090828629252 20.0590340558711 27.41476862990422 5.256944230391315 -1.5324230427615604 29.517817542908993 0 0 0 0 0 0 0 0 0 0 0 0 0 0 0 0 0 0 0 0 0 0 0 0 0 0 0 0 0 0 0 0 0 0 0 0 0 0 0 0 0 0 0 0 0 1.0836245607962205 16.61560054963751 -40.981740837075094 43.63238382316432 -33.43013192989344 0.16571886164300959 18.439481042578027 46.12843696289836 -16.837501420691815 -1.8119943391520663 4.294266432106191 -21.336564767823145 0 0 0 0 0 0 0 0 0 0 0 0 0 0 0 0 0 0 0 0 0 0 0 0 0 0 0 0 0 0 0 0 0 0 0 0 0 0 0 0 0 0 0 0 0 5.577757133576436 11.360658497966691 -0.7504325560004457 -13.98132180385095 24.791403327616727 -4.59745268869368 17.261989438062475 -19.321095617658678 -8.003136930909832 0 0 0 -4.50390075789876 0.3014812720715777 -18.500615969473284 4.019634791236663 36.90602252226977 -5.471509384706193 3.2109771430355827 -10.823650884678372 2.7375623319354974 0 0 0
0.5549173928538633 -0.5452486507441517 1.0354052251341201 7.375939563875853 -19.32684979346522 11.937905539147371 1.9992798051095528 -4.0713374645547225 18.30038457516825 6.587963617914137 12.597405125255845 -31.440609369013252 0 0 0 11.15704932812417 22.391306840820334 -4.206302692832299 13.308156058680614 -13.620754864053161 -4.7732676546217085 0 0 0 0 0 0 -4.551348582769431 2.454907601722571 26.6196831395843 -37.833337076606405 17.615261706245086 10.800252808158872 -15.143536418480158 24.183087838389213 28.020106695225994 5.012692860411718 -1.4752060489373509 29.390364238961254 0 0 0 0 0 0 0 0 0 0 0 0 0 0 0 0 0 0 0 0 0 0 0 0 0 0 0 0 0 0 0 0 0 0 0 0 0 0 0 0 0 0 0 0 0 0.5866801245892839 16.326979464047483 -40.885919324616395 42.95705296660867 -34.83860882376563 -0.03216545734353134 20.821378671931296 47.791186312933625 -15.773832851248848 -2.2528949519921495 4.268526324430882 -21.753554075807745 0 0 0 0 0 0 0 0 0 0 0 0 0 0 0 0 0 0 0 0 0 0 0 0 0 0 0 0 0 0 0 0 0 0 0 0 0 0 0 0 0 0 0 0 0 5.479545899199157 10.395228653989177 -0.9240779378194897 -13.772370235808275 24.920109867003404 -4.957233832769483 17.095902960695977 -19.68180247923032 -7.92820412175166 0 0 0 -4.212572079561939 -0.7575210506684874 -18.252538579636163 4.164373773204054 37.20197678993949 -5.858245120370963 2.945359436279797 -10.74222653069614 2.8154775403886356 0 0 0
0.5479306052472235 -0.5463236512548229 1.0219656610766494 7.254421750576585 -18.464138561646884 12.10588882491114 2.107887414899184 -3.9071687861786235 18.721612913686354 6.963877529951209 11.880987789344823 -32.57918236898078 0 0 0 11.820356856676138 21.594906940073123 -4.310251163083725 13.798088810900044 -13.165766974443649 -4.061645574170164 0 0 0 0 0 0 -4.324353234745744 2.3747101478949677 26.131296005862414 -37.445550516800175 12.838465023599195 11.024855800917015 -15.684098991638821 28.312380373618172 28.600795077151037 4.768320532289188 -1.4185327322002643 29.26267183854624 0 0 0 0 0 0 0 0 0 0 0 0 0 0 0 0 0 0 0 0 0 0 0 0 0 0 0 0 0 0 0 0 0 0 0 0 0 0 0 0 0 0 0 0 0 0.08995907772445784 16.039165640311516 -40.787637033552 42.27578668917267 -36.24892567788397 -0.21296147432294493 23.32923330012804 49.421469393639484 -14.56965931187788 -2.69358051520765 4.239587766614485 -22.170317083465463 0 0 0 0 0 0 0 0 0 0 0 0 0 0 0 0 0 0 0 0 0 0 0 0 0 0 0 0 0 0 0 0 0 0 0 0 0 0 0 0 0 0 0 0 0 5.384589855356066 9.429513110124908 -1.0955349718114655 -13.564094471140043 25.050004495409794 -5.31687285434446 16.9289375785606 -20.04230194643772 -7.851987333305783 0 0 0 -3.9257125501024985 -1.8177614866935379 -18.009749376163995 4.307164453480179 37.49870437303742 -6.245567175960092 2.679925802994818 -10.660448815560766 2.892987010521255 0 0 0
0.5409438176405837 -0.5473986517654941 1.0085260970191785 7.136152437018281 -17.601096452117957 12.271129735321871 2.223378330809414 -3.741293225987694 19.140231103402908 7.353274766712401 11.172019046739852 -33.71963802273236 0 0 0 12.481644176209548 20.799675920773257 -4.42349577397729 14.292890544406871 -12.71674369934437 -3.3473504567881256 0 0 0 0 0 0 -4.096694338145938 2.296449495065714 25.642621637671347 -37.08257804248552 8.060353638417697 11.213409667729778 -16.198440107233388 32.44629238552873 29.160421480523166 4.52382830004673 -1.3624045976267662 29.134739263160068 0 0 0 0 0 0 0 0 0 0 0 0 0 0 0 0 0 0 0 0 0 0 0 0 0 0 0 0 0 0 0 0 0 0 0 0 0 0 0 0 0 0 0 0 0 -0.40656515911351204 15.752180243755749 -40.68690504796709 41.58739948346052 -37.66089999282608 -0.3759457003905582 25.97712338313063 51.01430867802191 -13.211956793941745 -3.1340258719460534 4.2074545359329365 -22.586829971429186 0 0 0 0 0 0 0 0 0 0 0 0 0 0 0 0 0 0 0 0 0 0 0 0 0 0 0 0 0 0 0 0 0 0 0 0 0 0 0 0 0 0 0 0 0 5.292807626211823 8.463523419328826 -1.264919344131005 -13.356500271166194 25.181080331912842 -5.676372203416197 16.761073592197956 -20.402592346368927 -7.774474674867515 0 0 0 -3.643135599568004 -2.8791950571084195 -17.772092051904103 4.447985326104076 37.79619224943714 -6.633504555049898 2.414676568274722 -10.57831959562391 2.9700894226492887 0 0 0
0.5232080984963164 -0.5549228501633786 0.984341090523607 7.335859048987669 -16.770127968293373 12.203640137691634 2.40255837368925 -3.370659361667861 19.030918101156576 7.851724299834287 10.13628729345491 -33.87935565331017 0 0 0 12.859295560433818 19.740510678362032 -4.598227465806414 14.489137089369267 -12.263031448976745 -2.7057903568840236 0 0 0 0 0 0 -3.8683877498388015 2.2201322223536097 25.153664150812673 -36.81614552908214 2.1776397809705728 11.575142539583549 -17.811632119572263 37.01414841823793 28.902038658817695 4.290761737458539 -1.2819526774897072 28.285809968323868 0 0 0 0 0 0 0 0 0 0 0 0 0 0 0 0 0 0 0 0 0 0 0 0 0 0 0 0 0 0 0 0 0 0 0 0 0 0 0 0 0 0 0 0 0 -0.9029190937590535 15.466047985976195 -40.583736622240444 40.97607109526926 -39.37448241063152 -0.8028856377137469 29.75726951205332 52.474513983828544 -11.284725428867551 -3.574103601618436 4.17213900362914 -23.002962481753592 0 0 0 0 0 0 0 0 0 0 0 0 0 0 0 0 0 0 0 0 0 0 0 0 0 0 0 0 0 0 0 0 0 0 0 0 0 0 0 0 0 0 0 0 0 5.174419437400463 7.057189760059304 -1.1030147732000364 -13.332987825165649 25.7833142385866 -6.288210729214969 16.592290622273183 -20.762664604218102 -7.695648380432936 0 0 0 -3.2984724285793714 -3.9184833283402263 -17.354734452263678 4.4567296591522965 38.087901120922524 -6.818021843819406 2.1496100142374908 -10.495839853796605 3.0467839775525647 0 0 0
